<!-- icon666.com - MILLIONS vector ICONS FREE --><svg id="Layer_1" viewBox="0 0 512 512" xmlns="http://www.w3.org/2000/svg" data-name="Layer 1"><path d="m403.023 243.12a88.844 88.844 0 0 1 -88.744 88.744h-143.925l39.386 31.716a16 16 0 0 1 -20.07 24.92l-74.73-60.177a16 16 0 0 1 0-24.924l74.731-60.177a16 16 0 1 1 20.068 24.923l-39.384 31.715h143.924a56.745 56.745 0 0 0 0-113.489h-140.748a16 16 0 0 1 0-32h140.748a88.845 88.845 0 0 1 88.744 88.749zm108.977 12.88c0 141.159-114.841 256-256 256s-256-114.841-256-256 114.841-256 256-256 256 114.841 256 256zm-32 0c0-123.514-100.486-224-224-224s-224 100.486-224 224 100.486 224 224 224 224-100.486 224-224z"></path></svg>