<!-- icon666.com - MILLIONS vector ICONS FREE --><svg id="Layer_1" enable-background="new 0 0 100 100" viewBox="0 0 100 100" xmlns="http://www.w3.org/2000/svg"><path d="m89.0317383 16.8134766h-3.434082v-5.8330078c0-.5527344-.4477539-1-1-1h-11.8813477c-.5522461 0-1 .4472656-1 1v5.8330078h-14.7441406v-5.8330078c0-.5527344-.4477539-1-1-1h-11.8813477c-.5522461 0-1 .4472656-1 1v5.8330078h-14.7436523v-5.8330078c0-.5527344-.4477539-1-1-1h-11.8813477c-.5522461 0-1 .4472656-1 1v5.8330078h-3.434082c-.5522461 0-1 .4472656-1 1v11.8818359c0 .5527344.4477539 1 1 1h3.434082v38.4619141h-3.434082c-.5522461 0-1 .4472656-1 1v11.8818359c0 .5527344.4477539 1 1 1h3.434082v5.9414062c0 .5527344.4477539 1 1 1h11.8813477c.5522461 0 1-.4472656 1-1v-5.9414062h14.7436523v5.9414062c0 .5527344.4477539 1 1 1h11.8813477c.5522461 0 1-.4472656 1-1v-5.9414062h14.7441406v5.9414062c0 .5527344.4477539 1 1 1h11.8813477c.5522461 0 1-.4472656 1-1v-5.9414062h3.434082c.5522461 0 1-.4472656 1-1v-11.8818359c0-.5527344-.4477539-1-1-1h-3.434082v-38.4619141h3.434082c.5522461 0 1-.4472656 1-1v-11.8818359c0-.5527344-.4477539-1-1-1zm-15.3154297-4.8330078h9.8813477v4.8330078h-9.8813477zm-28.6254883 0h9.8813477v4.8330078h-9.8813477zm-28.625 0h9.8813477v4.8330078h-9.8813477zm0 18.7148437h9.8813477v6.5h-2.1259766c-.5522461 0-1 .4472656-1 1v23.609375c0 .5527344.4477539 1 1 1h2.1259766v6.3525391h-9.8813477zm40.5063477 38.4619141v-6.3525391h14.7441406v6.3525391zm-13.8813477-6.3525391v6.3525391h-14.7436523v-6.3525391zm2 0h9.8813477v6.3525391h-9.8813477zm-19.8696289-2v-21.609375h49.6210938v21.609375zm31.7509766-23.609375v-6.5h14.7441406v6.5zm-2 0h-9.8813477v-6.5h9.8813477zm-11.8813477 0h-14.7436523v-6.5h14.7436523zm-16.7436523 50.7851563h-9.8813477v-4.9414062h9.8813477zm28.625 0h-9.8813477v-4.9414062h9.8813477zm28.6254882 0h-9.8813477v-4.9414062h9.8813477zm4.4340821-6.9414063h-76v-9.8818359h76zm-4.4340821-11.8818359h-9.8813477v-6.3525391h2.1259766c.5522461 0 1-.4472656 1-1v-23.609375c0-.5527344-.4477539-1-1-1h-2.1259766v-6.5h9.8813477zm4.4340821-40.4619141h-76v-9.8818359h76z"></path><path d="m19.8647461 24.7548828h3.0834961c.5522461 0 1-.4472656 1-1s-.4477539-1-1-1h-3.0834961c-.5522461 0-1 .4472656-1 1s.4477539 1 1 1z"></path><path d="m19.8647461 77.0986328h3.0834961c.5522461 0 1-.4472656 1-1s-.4477539-1-1-1h-3.0834961c-.5522461 0-1 .4472656-1 1s.4477539 1 1 1z"></path><path d="m48.4897461 24.7548828h3.0834961c.5522461 0 1-.4472656 1-1s-.4477539-1-1-1h-3.0834961c-.5522461 0-1 .4472656-1 1s.4477539 1 1 1z"></path><path d="m48.4897461 77.0986328h3.0834961c.5522461 0 1-.4472656 1-1s-.4477539-1-1-1h-3.0834961c-.5522461 0-1 .4472656-1 1s.4477539 1 1 1z"></path><path d="m77.1152344 24.7548828h3.0834961c.5522461 0 1-.4472656 1-1s-.4477539-1-1-1h-3.0834961c-.5522461 0-1 .4472656-1 1s.4477539 1 1 1z"></path><path d="m77.1152344 77.0986328h3.0834961c.5522461 0 1-.4472656 1-1s-.4477539-1-1-1h-3.0834961c-.5522461 0-1 .4472656-1 1s.4477539 1 1 1z"></path></svg>