<!-- icon666.com - MILLIONS vector ICONS FREE --><svg version="1.1" id="Capa_1" xmlns="http://www.w3.org/2000/svg" xmlns:xlink="http://www.w3.org/1999/xlink" x="0px" y="0px" viewBox="0 0 512 512" style="enable-background:new 0 0 512 512;" xml:space="preserve"><g><g><g><path d="M378.88,307.198c-5.652,0-10.24,4.588-10.24,10.24v133.12H204.8V61.438h163.84v133.12c0,5.652,4.588,10.24,10.24,10.24 s10.24-4.588,10.24-10.24V51.198c0-5.652-4.588-10.24-10.24-10.24H204.8v-30.72c0-3.092-1.413-6.042-3.83-7.987 c-2.437-1.925-5.591-2.683-8.622-2.007L8.028,41.204C3.338,42.228,0,46.406,0,51.198v409.6c0,4.792,3.338,8.97,8.028,9.994 l184.32,40.96c0.717,0.164,1.475,0.246,2.212,0.246c2.314,0,4.567-0.778,6.41-2.253c2.417-1.946,3.83-4.895,3.83-7.987v-30.72 h174.08c5.652,0,10.24-4.588,10.24-10.24v-143.36C389.12,311.786,384.532,307.198,378.88,307.198z M184.32,51.198v409.6v28.201 L20.48,452.586V59.411l163.84-36.413V51.198z"></path><path d="M153.6,245.758c5.653,0,10.24-4.588,10.24-10.24c0-5.653-4.588-10.24-10.24-10.24c-5.652,0-10.24,4.588-10.24,10.24 C143.36,241.171,147.948,245.758,153.6,245.758z"></path><path d="M501.76,245.758H280.719l43.971-43.95c3.994-4.014,3.994-10.486,0-14.5c-4.014-3.994-10.486-3.994-14.5,0l-61.419,61.44 c-0.942,0.942-1.7,2.089-2.212,3.338c-1.044,2.519-1.044,5.304,0,7.823c0.512,1.249,1.27,2.396,2.212,3.338l61.419,61.44 c2.007,1.987,4.628,2.99,7.25,2.99s5.243-1.004,7.25-2.99c3.994-4.014,3.994-10.486,0-14.5l-43.971-43.95H501.76 c5.652,0,10.24-4.588,10.24-10.24S507.412,245.758,501.76,245.758z"></path></g></g></g></svg>