<!-- icon666.com - MILLIONS vector ICONS FREE --><svg id="Capa_1" enable-background="new 0 0 122.88 122.88" viewBox="0 0 122.88 122.88" xmlns="http://www.w3.org/2000/svg"><g id="Layer_x0020_1"><g id="XMLID_00000085243653977257935450000012935665336255604902_"><path d="m61.43 0c33.9 0 61.45 27.55 61.45 61.43 0 33.9-27.55 61.45-61.45 61.45-33.88 0-61.43-27.55-61.43-61.45 0-33.88 27.55-61.43 61.43-61.43zm58.08 61.43c0-32.01-26.05-58.06-58.08-58.06-32.01 0-58.06 26.05-58.06 58.06 0 32.03 26.05 58.08 58.06 58.08 32.03 0 58.08-26.05 58.08-58.08z"></path><path d="m61.43 10.8c27.94 0 50.65 22.7 50.65 50.63 0 28.74-23.87 51.44-51.96 50.65-9.98-.31-19.3-3.32-27.52-9.01-13.61-9.36-21.8-25.12-21.8-41.64 0-27.93 22.7-50.63 50.63-50.63zm29.59 87.53c10.8-8.67 17.72-21.99 17.72-36.9 0-26.08-21.21-47.29-47.31-47.29-26.08 0-47.29 21.24-47.29 47.29 0 14.91 6.95 28.23 17.75 36.9v-11.11c0-10.09 8.19-18.31 18.28-18.31h1.73v-2.75c-5.16-3.2-8.62-8.93-8.62-15.42v-16.16c0-4.73 3.86-8.56 8.59-8.56h28.69c.93 0 1.67.74 1.67 1.67v6.92c0 2.41-1.02 4.62-2.63 6.18v9.95c0 6.49-3.46 12.22-8.62 15.42v2.75h1.73c10.09 0 18.31 8.22 18.31 18.31zm-3.37 2.47v-13.58c0-8.25-6.69-14.94-14.94-14.94h-1.73c0 4.82.59 9.41-4.4 12.62-6.32 4.05-14.68-.51-14.68-8.05v-4.57h-1.73c-8.22 0-14.94 6.69-14.94 14.94v13.58c3.29 2.18 6.86 3.99 10.66 5.3v-12.64c0-2.21 3.35-2.21 3.35 0v13.69c7.96 2.12 16.44 2.1 24.37 0v-13.69c0-2.21 3.38-2.21 3.38 0v12.64c3.48-1.25 7.62-3.26 10.66-5.3zm-8.76-66.22v-5.21h-27.02c-2.89 0-5.21 2.35-5.21 5.21v5.22h27.01c2.89 0 5.22-2.33 5.22-5.22zm-2.67 16.13v-7.94l-2.55.4h-27.01v7.54c0 8.28 6.77 14.85 14.85 14.8 7.65-.09 14.71-6.15 14.71-14.8zm-8.61 26.14v-9.05c-3.97 1.45-8.37 1.45-12.36 0v9.05c0 3.43 2.77 6.18 6.18 6.18 3.4 0 6.18-2.78 6.18-6.18z"></path></g></g></svg>